<?xml version="1.0" standalone="no"?>
<!DOCTYPE svg PUBLIC "-//W3C//DTD SVG 20010904//EN"
 "http://www.w3.org/TR/2001/REC-SVG-20010904/DTD/svg10.dtd">
<svg version="1.0" xmlns="http://www.w3.org/2000/svg"
 width="157.000000pt" height="157.000000pt" viewBox="0 0 157.000000 157.000000"
 preserveAspectRatio="xMidYMid meet">
<metadata>
Created by potrace 1.14, written by Peter Selinger 2001-2017
</metadata>
<g transform="translate(0.000000,157.000000) scale(0.100000,-0.100000)"
fill="#000000" stroke="none">
<path d="M203 1489 c-70 -21 -97 -88 -91 -224 l3 -70 63 -3 62 -3 0 75 c0 106
-1 106 175 106 79 0 150 -3 159 -6 13 -5 16 -24 16 -108 0 -55 -4 -106 -8
-112 -4 -6 -61 -48 -127 -94 -66 -46 -121 -84 -123 -86 -2 -1 13 -25 33 -53
l36 -50 104 69 c204 137 214 154 215 343 0 214 -9 221 -290 224 -107 1 -209
-2 -227 -8z"/>
<path d="M1031 1487 c-57 -20 -74 -54 -81 -158 -5 -85 -7 -92 -33 -114 l-29
-22 34 -51 c18 -29 36 -52 40 -52 4 0 28 19 52 43 49 47 66 92 66 173 0 38 4
53 16 58 29 11 189 7 202 -6 13 -13 17 -173 6 -203 -4 -8 -62 -54 -130 -101
-68 -47 -124 -89 -124 -93 0 -4 15 -28 33 -54 l33 -47 133 92 c180 124 186
135 186 320 0 122 -2 139 -21 165 -38 53 -75 63 -219 62 -74 0 -145 -5 -164
-12z"/>
<path d="M650 710 l0 -60 45 0 45 0 0 60 0 60 -45 0 -45 0 0 -60z"/>
<path d="M750 710 l0 -60 45 0 45 0 0 60 0 60 -45 0 -45 0 0 -60z"/>
<path d="M235 698 c-2 -7 -6 -33 -7 -58 l-3 -45 -55 -5 -55 -5 0 -60 0 -60 55
-5 c52 -5 55 -7 60 -35 5 -29 7 -30 67 -33 l62 -3 3 33 3 33 65 0 65 0 0 -50
0 -50 -127 -88 -127 -88 32 -49 c18 -28 36 -50 41 -50 10 0 222 144 254 174
36 32 55 75 61 141 l6 60 55 5 55 5 3 63 3 62 -49 0 c-26 0 -53 5 -60 12 -7 7
-12 34 -12 60 l0 48 -65 0 -65 0 0 -54 c0 -61 -6 -66 -74 -66 -54 0 -66 13
-66 72 l0 48 -60 0 c-40 0 -62 -4 -65 -12z"/>
<path d="M935 701 c-11 -5 -31 -21 -45 -36 -23 -25 -25 -35 -28 -141 l-4 -114
66 0 65 0 3 83 3 82 163 3 162 2 11 -27 c14 -36 6 -177 -11 -198 -7 -8 -63
-50 -124 -92 -61 -42 -113 -78 -115 -80 -6 -4 16 -44 43 -78 l23 -29 109 74
c190 127 205 150 212 310 5 124 -6 175 -48 215 l-31 30 -217 2 c-119 1 -226
-2 -237 -6z"/>
</g>
</svg>
